<?xml version="1.0" encoding="UTF-8"?>
<!DOCTYPE svg PUBLIC "-//W3C//DTD SVG 1.1//EN" "http://www.w3.org/Graphics/SVG/1.1/DTD/svg11.dtd">
<!-- Creator: CorelDRAW -->
<svg xmlns="http://www.w3.org/2000/svg" xml:space="preserve" width="64px" height="64px" shape-rendering="geometricPrecision" text-rendering="geometricPrecision" image-rendering="optimizeQuality" fill-rule="evenodd" clip-rule="evenodd"
viewBox="0 0 640 640"
 xmlns:xlink="http://www.w3.org/1999/xlink">
 <g id="Layer_x0020_1">
  <metadata id="CorelCorpID_0Corel-Layer"/>
  <path fill="#FF6666" d="M115.076 0l415.033 0c9.72059,0 17.6813,7.96073 17.6813,17.6931l0 0c0,9.7324 -7.96073,17.6931 -17.6813,17.6931l-415.033 0c-9.72059,0 -17.6813,-7.96073 -17.6813,-17.6931l0 0c0,-9.7324 7.96073,-17.6931 17.6813,-17.6931zm510.467 224.826l0 21.3664c0.224412,2.0079 0.330713,4.05123 0.330713,6.10637 0,35.8351 -33.4965,64.8788 -74.8119,64.8788 -41.3155,0 -74.8119,-29.0437 -74.8119,-64.8788 0,-1.53545 0.0590558,-3.05909 0.177168,-4.57092l-2.98823 0c0.118112,1.51183 0.177168,3.03547 0.177168,4.57092 0,35.8351 -33.4965,64.8788 -74.8119,64.8788 -41.3155,0 -74.8001,-29.0437 -74.8001,-64.8788 0,-1.53545 0.0590558,-3.05909 0.177168,-4.57092l-2.98823 0c0.118112,1.51183 0.177168,3.03547 0.177168,4.57092 0,35.8351 -33.4965,64.8788 -74.8119,64.8788 -41.3155,0 -74.8119,-29.0437 -74.8119,-64.8788 0,-1.53545 0.0590558,-3.05909 0.177168,-4.57092l-1.86616 0c0.118112,1.51183 0.177168,3.03547 0.177168,4.57092 0,35.8351 -33.4965,64.8788 -74.8119,64.8788 -41.3155,0 -74.8119,-29.0437 -74.8119,-64.8788 0,-1.75986 0.0826782,-3.49611 0.236223,-5.20873l0 -22.2641c201.558,0 403.139,0 604.696,0zm-529.873 -170.459l456.443 0 58.1936 124.218 -574.98 0 60.3433 -124.218zm-70.0402 508.211l63.1307 0 0 -199.502c1.03938,0.0590558 2.06695,0.0944894 3.10634,0.129923l0.0118112 0 0.177168 0 0.0472447 0 1.21655 0.0236223 0.106301 0 0.106301 0 0.153545 0.0118112 0.153545 0 0.0590558 0 0.0472447 0 0.106301 0 0.106301 0 0.0944894 0 0.106301 0 0.153545 0 0.165356 0.0118112 0.0944894 0 0.106301 0 0.106301 0 0.106301 0 0.30709 0 0 0.177168 0.0236223 0 0.0354335 0 0 -0.177168c28.5476,-0.0118112 54.9337,-9.10641 75.5324,-24.2129l0.153545 0.106301 0.153545 0.106301 0.141734 0.106301 0.153545 0.118112 0.141734 0.106301 0.153545 0.106301 0.070867 0.0472447 0.0826782 0.0590558 0.153545 0.118112 0.153545 0.0944894 0.153545 0.118112 0.0354335 0.0236223 0.543314 0.389769 0.0236223 0.0118112 0.153545 0.106301 0.0472447 0.0354335 0.259846 0.177168 0.153545 0.106301 0.153545 0.106301 0.0472447 0.0354335 0.106301 0.070867 0.153545 0.106301 0.153545 0.0944894 0.153545 0.106301 0.153545 0.118112 0.153545 0.0944894 0.129923 0.0944894 0.0236223 0.0118112 0.153545 0.106301 0.165356 0.106301 0.153545 0.106301 0.153545 0.0944894 0.153545 0.106301 0.165356 0.106301 0.0354335 0.0236223 1.21655 0.791348 0.141734 0.0944894 0.165356 0.106301 0.956705 0.60237 0.153545 0.0944894 1.12206 0.685048 0.165356 0.0944894 0.153545 0.106301 0.165356 0.0944894 0.165356 0.0944894 0.153545 0.0944894 0.165356 0.106301 0.165356 0.0944894 0.165356 0.0944894 0 130.738 278.047 0 0 -127.761c4.51187,-2.36223 8.84657,-4.99612 12.9569,-7.85443l0.106301 -0.0826782 0.0472447 -0.0236223 0.838593 -0.590558 0.070867 -0.0590558 0.236223 -0.165356 0.236223 -0.165356 0.0118112 -0.0118112 0.425202 -0.30709 0.0354335 -0.0236223 0.0472447 -0.0354335 0.897649 -0.649614c20.6932,15.3545 47.2801,24.6263 76.0994,24.6263l0 0.177168 0.0236223 0 0.0354335 0 0 -0.177168 0.153545 0 0 199.325 63.1189 0c9.7324,0 17.6931,17.4215 17.6931,38.717l0 0c0,21.2955 -7.97254,38.7052 -17.6931,38.7052l-588.74 0c-9.70878,0 -17.6813,-17.4097 -17.6813,-38.7052l0 0c0,-21.2955 7.96073,-38.717 17.6813,-38.717z"/>
 </g>
</svg>
